# xmcd
#
# Track frame offsets: 
#        225
#        14800
#        35085
#        53299
#        87617
#        103358
#        128518
#        140452
#        158468
#        177130
#        197243
#        211577
#        224718
#        242060
#        268415
#        286943
#        306727
#
# Disc length: 4342 seconds
#
# Revision: 7
# Processed by: cddbd v1.5.2PL0 Copyright (c) Steve Scherf et al.
# Submitted via: ExactAudioCopy v0.95b4
#
DISCID=0710f311
DTITLE=All Stars Disco - CD4
DYEAR=1998
DGENRE=Disco
TTITLE0=Afric Simone - Todo Pasara Maria
TTITLE1=Dschinghis Khan - Moskau
TTITLE2=Spaghetti Surfers - Misirlou
TTITLE3=Mr. Zivago - Little Russian
TTITLE4=Arabesque - Hello Mr. Monkey
TTITLE5=Boney M - Never Change Lovers
TTITLE6=Joe Dassin  - Siffler Sur La Colline
TTITLE7=Saragossa Band  - Sun of Jamaica
TTITLE8=Dee D.Jackson  - SOS
TTITLE9=Bad Boys Blue  - Lady Blue
TTITLE10=Beach Boys  - California Dreamin
TTITLE11=Vaya Con Dios  - Nah Neh Nah
TTITLE12=Tarkan - Hepsi Seniw Mi?
TTITLE13=Fracesco Napoli  - Balla
TTITLE14=Opus - Life Is Live
TTITLE15=Desireless  - Voyage
TTITLE16=Alphaville  - A Victory of Love - Sweet Harmony
EXTD=YEAR: 2001
EXTT0=
EXTT1=
EXTT2=
EXTT3=
EXTT4=
EXTT5=
EXTT6=
EXTT7=
EXTT8=
EXTT9=
EXTT10=
EXTT11=
EXTT12=
EXTT13=
EXTT14=
EXTT15=
EXTT16=
PLAYORDER=
